#!OML:ASF H:\Male1\Project 1\Capture day 1\Session 1\Male1.ASF
:FULLY-SPECIFIED
:DEGREES
296
root 1.54255 15.2969 -0.37165 170.165 71.089 -187.421
lowerback 7.99655 0.973561 -6.60507
upperback 5.65675 1.26555 -3.44358
thorax 1.35858 0.663027 0.0545783
lowerneck -6.63567 -1.88256 1.33288
upperneck 16.0053 -3.48684 7.00256
head 6.0474 -0.939747 1.75929
rclavicle 6.02318e-014 1.19271e-014
rhumerus -36.1145 6.73885 -91.4863
rradius 39.8652
rwrist -22.7921
rhand -18.7644 0.352618
rfingers 7.12502
rthumb 7.53253 -29.4933
lclavicle 6.02318e-014 1.19271e-014
lhumerus -28.9674 9.24836 72.7658
lradius 24.672
lwrist 7.30396
lhand -27.3576 14.1097
lfingers 7.12502
lthumb -0.765483 44.0881
rfemur -19.7549 1.22142 25.4663
rtibia 70.7686
rfoot -7.58739 -15.8962
rtoes -26.3487
lfemur -5.94683 -11.9835 -23.8248
ltibia 25.6378
lfoot -19.3488 19.7496
ltoes -14.3696
297
root 1.73686 15.2861 -0.48163 169.494 71.7087 -187.946
lowerback 8.1927 0.911337 -6.69862
upperback 5.69809 1.16082 -3.37754
thorax 1.29687 0.60794 0.178722
lowerneck -6.70003 -1.6961 1.59951
upperneck 16.2432 -3.22555 6.63801
head 6.11604 -0.815819 1.61934
rclavicle 3.37934e-015 4.69132e-014
rhumerus -36.2233 6.16948 -91.1147
rradius 39.3603
rwrist -22.2617
rhand -18.4971 0.0128211
rfingers 7.12502
rthumb 7.79051 -29.8237
lclavicle 3.37934e-015 4.69132e-014
lhumerus -28.717 9.61428 72.9585
lradius 24.5836
lwrist 7.2357
lhand -27.3968 13.899
lfingers 7.12502
lthumb -0.803348 43.8772
rfemur -22.0564 1.49479 25.4097
rtibia 70.1776
rfoot -9.21331 -16.6956
rtoes -26.3456
lfemur -4.51694 -11.769 -24.3705
ltibia 25.313
lfoot -20.227 20.2656
ltoes -14.0405
298
root 1.93557 15.2698 -0.588976 168.73 72.2544 -188.574
lowerback 8.37645 0.833806 -6.82396
upperback 5.7398 1.03509 -3.31152
thorax 1.24418 0.541438 0.322745
lowerneck -6.7793 -1.51577 1.8711
upperneck 16.5007 -2.97159 6.25915
head 6.1952 -0.695554 1.47358
rclavicle 4.37326e-015 1.27222e-014
rhumerus -36.3035 5.59342 -90.7312
rradius 38.7972
rwrist -21.6815
rhand -18.1695 -0.230548
rfingers 7.12502
rthumb 8.10675 -30.0551
lclavicle 4.37326e-015 1.27222e-014
lhumerus -28.5129 9.92105 73.1736
lradius 24.557
lwrist 7.27294
lhand -27.4151 13.6797
lfingers 7.12502
lthumb -0.820965 43.6579
rfemur -24.0855 1.79484 25.2963
rtibia 68.8047
rfoot -10.7698 -17.4295
rtoes -26.2682
lfemur -3.08446 -11.5623 -24.9451
ltibia 24.967
lfoot -21.1393 20.6886
ltoes -13.5086
299
root 2.13922 15.2524 -0.693875 167.938 72.7399 -189.261
lowerback 8.53482 0.745105 -6.95435
upperback 5.77038 0.894753 -3.24519
thorax 1.19556 0.467226 0.471879
lowerneck -6.86039 -1.34005 2.12758
upperneck 16.7658 -2.72236 5.88895
head 6.27932 -0.577812 1.33284
rclavicle 3.97569e-015 -5.56597e-015
rhumerus -36.3929 5.03878 -90.3544
rradius 38.2195
rwrist -21.1882
rhand -17.8354 -0.356791
rfingers 7.12502
rthumb 8.42919 -30.1686
lclavicle 3.97569e-015 -5.56597e-015
lhumerus -28.3665 10.1039 73.4192
lradius 24.6121
lwrist 7.43128
lhand -27.3806 13.5054
lfingers 7.12502
lthumb -0.787641 43.4837
rfemur -25.8255 2.094 25.1298
rtibia 66.6767
rfoot -12.224 -18.1934
rtoes -26.0908
lfemur -1.60812 -11.3683 -25.528
ltibia 24.4759
lfoot -22.0009 21.0518
ltoes -12.8587
300
root 2.34857 15.2398 -0.79633 167.205 73.1809 -189.926
lowerback 8.6594 0.651335 -7.05209
upperback 5.78648 0.750356 -3.17629
thorax 1.15148 0.391291 0.6068
lowerneck -6.93581 -1.1744 2.35105
upperneck 17.027 -2.48571 5.55077
head 6.36392 -0.466158 1.20691
rclavicle 3.00165e-014 -5.80451e-014
rhumerus -36.5231 4.49924 -89.9877
rradius 37.6889
rwrist -20.8203
rhand -17.504 -0.474914
rfingers 7.12502
rthumb 8.74898 -30.2736
lclavicle 3.00165e-014 -5.80451e-014
lhumerus -28.2698 10.1152 73.703
lradius 24.7545
lwrist 7.71917
lhand -27.2859 13.3851
lfingers 7.12502
lthumb -0.696205 43.3637
rfemur -27.2369 2.3904 24.9315
rtibia 63.8198
rfoot -13.5772 -19.0694
rtoes -25.8444
lfemur -0.0342006 -11.1836 -26.0881
ltibia 23.7245
lfoot -22.7273 21.3898
ltoes -12.1923
301
root 2.56402 15.2342 -0.895897 166.596 73.5917 -190.497
lowerback 8.73635 0.558159 -7.10041
upperback 5.79737 0.612778 -3.09736
thorax 1.12817 0.318774 0.725147
lowerneck -7.00271 -1.02135 2.53073
upperneck 17.2651 -2.26538 5.25788
head 6.44235 -0.362867 1.10142
rclavicle 1.21259e-014 7.95139e-016
rhumerus -36.7043 3.98763 -89.6348
rradius 37.237
rwrist -20.6007
rhand -17.2107 -0.581576
rfingers 7.12502
rthumb 9.032 -30.3682
lclavicle 1.21259e-014 7.95139e-016
lhumerus -28.2052 9.9412 74.0376
lradius 24.9917
lwrist 8.14614
lhand -27.1653 13.3242
lfingers 7.12502
lthumb -0.579698 43.3031
rfemur -28.2931 2.69567 24.725
rtibia 60.3014
rfoot -14.8849 -20.0955
rtoes -25.4713
lfemur 1.68394 -11.0127 -26.6001
ltibia 22.6337
lfoot -23.2641 21.7313
ltoes -11.4756
302
root 2.78471 15.2337 -0.992456 166.104 73.9973 -190.979
lowerback 8.74948 0.473142 -7.09897
upperback 5.81511 0.495143 -3.00638
thorax 1.14596 0.255606 0.827648
lowerneck -7.06124 -0.878516 2.67831
upperneck 17.4544 -2.05728 4.99471
head 6.50565 -0.267678 1.00957
rclavicle 3.43897e-014 -1.11319e-014
rhumerus -36.9205 3.51388 -89.2931
rradius 36.8618
rwrist -20.4969
rhand -16.9768 -0.632068
rfingers 7.12502
rthumb 9.2577 -30.4088
lclavicle 3.43897e-014 -1.11319e-014
lhumerus -28.1501 9.6238 74.4214
lradius 25.3225
lwrist 8.68126
lhand -27.047 13.3371
lfingers 7.12502
lthumb -0.465482 43.3163
rfemur -29.0105 3.05456 24.5121
rtibia 56.2387
rfoot -16.1854 -21.2553
rtoes -24.85
lfemur 3.56714 -10.8533 -27.0649
ltibia 21.1662
lfoot -23.594 22.1015
ltoes -10.6237
303
root 3.00983 15.2349 -1.08574 165.665 74.4143 -191.427
lowerback 8.695 0.404866 -7.05533
upperback 5.84833 0.410155 -2.9131
thorax 1.21505 0.208082 0.907089
lowerneck -7.11164 -0.749344 2.80673
upperneck 17.5879 -1.86724 4.7558
head 6.55119 -0.183182 0.926971
rclavicle 7.55382e-015 -3.73715e-014
rhumerus -37.1543 3.04713 -88.9611
rradius 36.5518
rwrist -20.4271
rhand -16.7965 -0.620004
rfingers 7.12502
rthumb 9.43172 -30.389
lclavicle 7.55382e-015 -3.73715e-014
lhumerus -28.088 9.20944 74.8361
lradius 25.7395
lwrist 9.27777
lhand -26.9546 13.4305
lfingers 7.12502
lthumb -0.37628 43.4099
rfemur -29.426 3.53176 24.2768
rtibia 51.8003
rfoot -17.6144 -22.5162
rtoes -23.8689
lfemur 5.61739 -10.663 -27.49
ltibia 19.3336
lfoot -23.7136 22.4766
ltoes -9.67418
304
root 3.23865 15.2339 -1.17537 165.155 74.8374 -191.958
lowerback 8.58279 0.35712 -6.99381
upperback 5.89711 0.361015 -2.83564
thorax 1.33 0.1781 0.957686
lowerneck -7.14202 -0.637318 2.92857
upperneck 17.6681 -1.70174 4.54564
head 6.57752 -0.110957 0.852516
rclavicle 1.23246e-014 1.90833e-014
rhumerus -37.3957 2.57941 -88.6524
rradius 36.2891
rwrist -20.3466
rhand -16.656 -0.555684
rfingers 7.12502
rthumb 9.56725 -30.3185
lclavicle 1.23246e-014 1.90833e-014
lhumerus -28.0182 8.72741 75.2543
lradius 26.2353
lwrist 9.89771
lhand -26.9216 13.6101
lfingers 7.12502
lthumb -0.344376 43.5896
rfemur -29.6032 4.19733 23.9757
rtibia 47.1944
rfoot -19.2939 -23.8251
rtoes -22.3874
lfemur 7.82835 -10.4332 -27.9073
ltibia 17.1725
lfoot -23.6324 22.84
ltoes -8.74382
305
root 3.4701 15.2272 -1.26087 164.433 75.2581 -192.706
lowerback 8.43212 0.334548 -6.93978
upperback 5.95419 0.350311 -2.79047
thorax 1.47268 0.167484 0.976206
lowerneck -7.14052 -0.547806 3.05031
upperneck 17.709 -1.56923 4.37013
head 6.58689 -0.0532973 0.786481
rclavicle -8.74653e-015 1.43125e-014
rhumerus -37.6498 2.12034 -88.3812
rradius 36.0626
rwrist -20.2332
rhand -16.5477 -0.44167
rfingers 7.12502
rthumb 9.67175 -30.1996
lclavicle -8.74653e-015 1.43125e-014
lhumerus -27.9419 8.20345 75.6477
lradius 26.7817
lwrist 10.5012
lhand -26.9509 13.8657
lfingers 7.12502
lthumb -0.372685 43.8452
rfemur -29.6087 5.13158 23.5561
rtibia 42.6661
rfoot -21.2991 -25.0948
rtoes -20.3558
lfemur 10.1866 -10.1471 -28.3475
ltibia 14.7257
lfoot -23.3432 23.1763
ltoes -8.06687
306
root 3.70364 15.2129 -1.34202 163.449 75.6688 -193.711
lowerback 8.26735 0.337225 -6.89846
upperback 6.01373 0.375198 -2.77952
thorax 1.62384 0.175373 0.963872
lowerneck -7.11946 -0.486416 3.15768
upperneck 17.7502 -1.4797 4.248
head 6.5942 -0.0124315 0.736693
rclavicle -2.04748e-014 -3.73715e-014
rhumerus -37.9277 1.67753 -88.1492
rradius 35.8743
rwrist -20.055
rhand -16.4546 -0.308125
rfingers 7.12502
rthumb 9.76159 -30.0619
lclavicle -2.04748e-014 -3.73715e-014
lhumerus -27.858 7.69291 75.9912
lradius 27.3335
lwrist 11.0284
lhand -27.0008 14.184
lfingers 7.12502
lthumb -0.420888 44.1634
rfemur -29.5196 6.43425 22.9824
rtibia 38.4617
rfoot -23.7652 -26.3096
rtoes -17.5694
lfemur 12.7027 -9.78906 -28.8108
ltibia 11.9991
lfoot -22.8134 23.4724
ltoes -7.86586
